<?xml version="1.0" encoding="UTF-8"?>
<svg version="1.1" xmlns="http://www.w3.org/2000/svg" width="1024" height="1024">
<path d="M0 0 C337.92 0 675.84 0 1024 0 C1024 337.92 1024 675.84 1024 1024 C686.08 1024 348.16 1024 0 1024 C0 686.08 0 348.16 0 0 Z " fill="#DFDED3" transform="translate(0,0)"/>
<path d="M0 0 C0.77015442 -0.00979385 1.54030884 -0.01958771 2.33380127 -0.02967834 C34.33055932 -0.35224735 62.98028421 4.10717877 91.9453125 18.23828125 C92.72793457 18.6146875 93.51055664 18.99109375 94.31689453 19.37890625 C106.21852875 25.15756741 116.64405006 31.96202861 126.9453125 40.23828125 C127.96367188 41.03363281 128.98203125 41.82898438 130.03125 42.6484375 C139.23475633 49.95710429 147.4122721 58.2298758 154.9453125 67.23828125 C155.54601562 67.93824219 156.14671875 68.63820313 156.765625 69.359375 C190.10776428 109.38344098 201.52588046 160.01097085 197.1953125 211.05078125 C194.5706087 237.31207108 186.09168552 272.09190823 166.9453125 291.23828125 C162.32043291 291.70076921 158.82546359 290.70330745 154.55859375 289.1328125 C151.89326665 288.17446187 151.89326665 288.17446187 148.86328125 287.5 C137.81823713 284.73546345 130.46320064 278.72284572 124.3828125 269.11328125 C120.69650684 262.26603415 117.84513008 255.03694805 114.91333008 247.84228516 C111.97462883 240.63556189 108.8535766 233.54418166 105.5703125 226.48828125 C95.17958928 204.06252397 85.82436313 181.2097395 76.58203125 158.29394531 C73.90050258 151.64638786 71.20482823 145.00456743 68.5078125 138.36328125 C68.24305115 137.71118683 67.97828979 137.05909241 67.70550537 136.38723755 C63.37425321 125.72259407 59.01359334 115.07017224 54.6328125 104.42578125 C54.33404205 103.69965637 54.03527161 102.97353149 53.72744751 102.22540283 C50.42800006 94.21038388 47.09709009 86.21050737 43.6953125 78.23828125 C39.19342631 67.66711402 35.16895322 56.90826645 31.06884766 46.17675781 C29.56125348 42.2338192 28.04881616 38.29329058 26.5078125 34.36328125 C26.07597656 33.25210938 25.64414062 32.1409375 25.19921875 30.99609375 C24.02489016 28.41330253 22.66390985 26.47295886 20.9453125 24.23828125 C20.9453125 23.57828125 20.9453125 22.91828125 20.9453125 22.23828125 C19.57032103 22.21689249 18.19448094 22.24862634 16.8203125 22.30078125 C15.67175781 22.31818359 15.67175781 22.31818359 14.5 22.3359375 C10.31892828 23.81273806 8.28554477 26.5476236 5.9453125 30.23828125 C3.84829239 34.70633501 2.14032728 39.29257801 0.4453125 43.92578125 C-2.57909758 52.06205447 -5.74664925 59.92297349 -9.72412109 67.64428711 C-11.33047126 70.77593308 -12.73542367 73.93883589 -14.1171875 77.17578125 C-17.44723881 84.89279631 -20.86643684 92.56894046 -24.3046875 100.23828125 C-24.72272141 101.17133087 -24.72272141 101.17133087 -25.14920044 102.12322998 C-29.49444854 111.817427 -33.89268279 121.4863192 -38.36425781 131.12304688 C-40.98442939 136.79634122 -43.44709612 142.51729338 -45.83105469 148.29370117 C-47.7214677 152.84283751 -49.70299125 157.35114261 -51.6796875 161.86328125 C-55.288332 170.13566593 -58.85203364 178.42573619 -62.3671875 186.73828125 C-62.81843994 187.80473877 -63.26969238 188.87119629 -63.73461914 189.9699707 C-66.27416265 195.98425893 -68.79130057 202.00734415 -71.2890625 208.0390625 C-77.48220657 222.97544866 -83.88720302 237.73655479 -91.0546875 252.23828125 C-91.80638254 253.77975635 -92.55769147 255.32141981 -93.30859375 256.86328125 C-94.01465402 258.30125842 -94.7216337 259.73878464 -95.4296875 261.17578125 C-95.73946533 261.80863037 -96.04924316 262.44147949 -96.3684082 263.09350586 C-99.47684905 269.31969173 -102.94310154 274.50071378 -108.0546875 279.23828125 C-108.7559375 279.91890625 -109.4571875 280.59953125 -110.1796875 281.30078125 C-115.05661497 284.58740629 -121.11555306 287.23828125 -127.0546875 287.23828125 C-125.13467303 299.53071453 -125.13467303 299.53071453 -120.0546875 310.23828125 C-118.16545192 310.36124812 -116.27188605 310.41824453 -114.37890625 310.44921875 C-113.17210205 310.4757251 -111.96529785 310.50223145 -110.72192383 310.52954102 C-109.40861084 310.55717529 -108.09529785 310.58480957 -106.7421875 310.61328125 C-96.20824394 310.87064762 -85.83910393 311.55065224 -75.3671875 312.80078125 C-64.4810031 314.0988111 -54.01625283 314.50348041 -43.0546875 314.23828125 C-42.0646875 304.83328125 -42.0646875 304.83328125 -41.0546875 295.23828125 C-44.303125 294.86703125 -44.303125 294.86703125 -47.6171875 294.48828125 C-59.32793164 292.74111378 -59.32793164 292.74111378 -63.578125 287.28125 C-68.49284095 279.09458226 -68.27507406 269.93774616 -66.3203125 260.80859375 C-65.36697567 257.5500572 -64.27173322 254.40734186 -63.0546875 251.23828125 C-62.65765625 250.18382812 -62.260625 249.129375 -61.8515625 248.04296875 C-60.66519265 245.04700944 -59.46988451 242.13387405 -58.0546875 239.23828125 C-57.76464246 238.57627464 -57.47459742 237.91426804 -57.17576313 237.23220062 C-54.35393305 231.68407786 -54.35393305 231.68407786 -50.93761253 230.51187134 C-48.24158401 230.25071174 -45.64786883 230.24848681 -42.94018555 230.33007812 C-41.41753334 230.32832581 -41.41753334 230.32832581 -39.86412048 230.32653809 C-36.51348369 230.33210571 -33.16641991 230.39429918 -29.81640625 230.45703125 C-27.4918665 230.47195438 -25.16730157 230.48334105 -22.84272766 230.49133301 C-16.72808205 230.52186056 -10.61495975 230.60043209 -4.50091553 230.68896484 C1.73941438 230.77084112 7.97999076 230.80734849 14.22070312 230.84765625 C26.46290843 230.93342311 38.70398374 231.06994014 50.9453125 231.23828125 C51.55557281 232.97770744 51.55557281 232.97770744 52.17816162 234.75227356 C52.71996099 236.29295596 53.26181358 237.83361964 53.80371094 239.37426758 C54.07089935 240.13628731 54.33808777 240.89830704 54.6133728 241.68341827 C56.65893867 247.49408061 58.8541733 253.22744843 61.1953125 258.92578125 C67.89538732 275.33073544 67.89538732 275.33073544 66.9453125 283.23828125 C65.30110786 287.01995193 63.43204615 289.09391161 59.9453125 291.23828125 C57.23085727 291.91899603 54.6322827 292.47289822 51.8828125 292.92578125 C51.16287109 293.05533203 50.44292969 293.18488281 49.70117188 293.31835938 C46.74498187 293.83713367 43.95180116 294.23828125 40.9453125 294.23828125 C40.9453125 300.83828125 40.9453125 307.43828125 40.9453125 314.23828125 C42.90766846 314.09608154 44.87002441 313.95388184 46.8918457 313.80737305 C67.233205 312.41028935 87.46204183 311.9508084 107.84729004 312.04266357 C110.95582771 312.05370442 114.06432338 312.05312539 117.17287731 312.05252552 C120.20208462 312.05279716 123.23126384 312.05827078 126.26046181 312.06552696 C127.68732811 312.06868046 129.11419753 312.07067315 130.54106712 312.07142067 C132.51200917 312.07359656 134.48293887 312.08315134 136.45385742 312.09301758 C137.56677658 312.09682938 138.67969574 312.10064117 139.82633972 312.10456848 C142.9411944 312.2381047 145.88463045 312.6591029 148.9453125 313.23828125 C146.11901412 323.07322865 138.75556618 329.99543697 130.9453125 336.23828125 C130.08035156 336.96273438 129.21539063 337.6871875 128.32421875 338.43359375 C90.00673608 369.42640808 39.644806 382.81437784 -9.08203125 378.125 C-33.18833519 375.33353108 -55.77186496 367.70991333 -77.0546875 356.23828125 C-78.79105469 355.31595703 -78.79105469 355.31595703 -80.5625 354.375 C-87.30456809 350.66609466 -93.68208344 346.57196878 -99.9921875 342.17578125 C-100.69013428 341.69334961 -101.38808105 341.21091797 -102.10717773 340.71386719 C-108.72729591 336.00799049 -114.1940147 330.53385916 -119.2421875 324.17578125 C-122.28006296 320.39658124 -125.37614541 316.68883068 -128.55834961 313.03173828 C-134.09081581 306.6665861 -139.26211444 300.18798113 -144.0546875 293.23828125 C-144.64612549 292.40176025 -144.64612549 292.40176025 -145.24951172 291.54833984 C-172.25511288 253.30857472 -179.79005819 202.36646032 -173.0546875 156.48828125 C-172.51239323 153.36931153 -171.81631496 150.31060896 -171.0546875 147.23828125 C-170.79655273 146.18318359 -170.53841797 145.12808594 -170.27246094 144.04101562 C-163.64087776 117.67624974 -153.45128588 94.92410491 -137.0546875 73.23828125 C-136.58933594 72.57957031 -136.12398438 71.92085938 -135.64453125 71.2421875 C-127.94921659 60.45079872 -118.53199265 51.2921654 -108.0546875 43.23828125 C-107.08273437 42.45066406 -106.11078125 41.66304688 -105.109375 40.8515625 C-78.32375478 19.47005864 -47.57465905 7.26384205 -14.0546875 1.23828125 C-13.12495117 1.05869873 -12.19521484 0.87911621 -11.23730469 0.6940918 C-7.48484313 0.15666883 -3.78292023 0.03959286 0 0 Z " fill="#E5E4DC" transform="translate(500.0546875,324.76171875)"/>
<path d="M0 0 C0.76183594 0.57105469 1.52367187 1.14210938 2.30859375 1.73046875 C7.3106322 5.51884103 11.98609324 9.59556558 16.609375 13.8359375 C18.63321537 15.667976 20.70204337 17.39584436 22.8125 19.125 C29.22797857 24.72396312 34.57999622 31.46088613 40 38 C40.67748291 38.81645996 40.67748291 38.81645996 41.36865234 39.64941406 C49.16770881 49.15723569 55.70545093 59.4565208 62 70 C62.41668945 70.69577148 62.83337891 71.39154297 63.26269531 72.10839844 C81.32057186 102.78143894 89.21920221 139.99787442 89.25 175.3125 C89.25067474 176.01420319 89.25134949 176.71590637 89.25204468 177.43887329 C89.20536054 208.20808216 82.78442447 239.79665898 68 267 C67.28794369 268.37114133 66.57849856 269.74364056 65.87109375 271.1171875 C61.61728895 279.33732869 57.19038605 287.32356456 52 295 C51.44828125 295.82628906 50.8965625 296.65257812 50.328125 297.50390625 C45.91152021 303.97686602 41.02716109 309.99488635 36 316 C35.17757813 317.00933594 34.35515625 318.01867187 33.5078125 319.05859375 C21.58871319 333.59495668 8.7915474 345.75496522 -7 356 C-7.68239746 356.44714355 -8.36479492 356.89428711 -9.06787109 357.35498047 C-40.65146524 377.94902784 -77.2464006 391.888559 -115.37890625 392.23828125 C-116.26008118 392.2480751 -117.1412561 392.25786896 -118.0491333 392.26795959 C-136.37891073 392.42985174 -154.12255374 392.53892361 -172 388 C-173.33901367 387.68651611 -173.33901367 387.68651611 -174.70507812 387.36669922 C-202.41928135 380.86661817 -228.09164114 368.83791844 -251 352 C-252.2375 351.09507812 -252.2375 351.09507812 -253.5 350.171875 C-263.14066459 342.87048932 -272.79172258 334.89768654 -281 326 C-281.52207031 325.43667969 -282.04414063 324.87335938 -282.58203125 324.29296875 C-310.96374635 292.72080325 -332.0528163 253.10671096 -339 211 C-339.16773926 210.14607666 -339.33547852 209.29215332 -339.50830078 208.41235352 C-341.41236725 197.86852161 -341.39625463 187.36576066 -341.375 176.6875 C-341.37478851 175.70989716 -341.37457703 174.73229431 -341.37435913 173.72506714 C-341.34406648 159.70043127 -340.79295141 146.26610323 -337.59423828 132.55322266 C-336.97964146 129.91252686 -336.43773093 127.2632666 -335.90234375 124.60546875 C-332.06702118 106.32387501 -324.85682962 89.38804185 -316 73 C-315.60474121 72.26458984 -315.20948242 71.52917969 -314.80224609 70.77148438 C-299.55100682 42.69359214 -278.89716521 18.59591941 -252.67919922 0.18408203 C-251.25663693 -0.81903328 -249.86131748 -1.86061168 -248.47265625 -2.91015625 C-176.87285279 -56.13812965 -70.18098465 -54.71539204 0 0 Z M-172 -8 C-172.75780762 -7.80776855 -173.51561523 -7.61553711 -174.29638672 -7.41748047 C-204.14147013 0.3257721 -230.7231673 16.38804398 -253.56054688 36.72802734 C-255.44810391 38.39596699 -257.38436257 40.00430181 -259.3125 41.625 C-265.7502765 47.28747439 -271.45557675 53.7289228 -276 61 C-277.04010826 62.438628 -278.08200308 63.87596489 -279.125 65.3125 C-291.75320268 83.44530385 -300.46032211 102.5450586 -306.4375 123.8125 C-306.9327417 125.56288574 -306.9327417 125.56288574 -307.43798828 127.34863281 C-311.57931818 142.80873094 -312.3529922 157.85287339 -312.25 173.75 C-312.24623352 174.63218201 -312.24246704 175.51436401 -312.23858643 176.42327881 C-312.0707167 209.94329217 -306.30796483 242.22002373 -288 271 C-287.09701172 272.46373047 -287.09701172 272.46373047 -286.17578125 273.95703125 C-277.7387014 287.16981667 -267.1773039 298.978155 -256.8515625 310.73046875 C-255.22368345 312.58406212 -253.63921805 314.44545527 -252.0859375 316.36328125 C-242.3615662 328.31515633 -228.31988499 335.75795815 -215 343 C-214.30471191 343.37930664 -213.60942383 343.75861328 -212.89306641 344.14941406 C-178.61952979 362.62178684 -138.55043136 369.9009647 -100 364 C-99.19836426 363.88414551 -98.39672852 363.76829102 -97.57080078 363.64892578 C-76.54624966 360.47629249 -55.49482709 353.50613589 -37 343 C-35.96141846 342.42596436 -35.96141846 342.42596436 -34.90185547 341.84033203 C-24.9362975 336.32022725 -15.8018626 330.22614454 -7 323 C-6.25363281 322.41863281 -5.50726562 321.83726562 -4.73828125 321.23828125 C1.37437882 316.27850009 9.78592715 308.07454799 11 300 C6.78454166 299.20230127 2.79640263 298.86942243 -1.49145508 298.85473633 C-2.76591995 298.84835648 -4.04038483 298.84197662 -5.35346985 298.83540344 C-6.74215659 298.83387035 -8.13084385 298.83275876 -9.51953125 298.83203125 C-10.9788974 298.82880593 -12.43826325 298.82544098 -13.89762878 298.82194519 C-16.97171774 298.81595624 -20.04577867 298.81410404 -23.11987305 298.81469727 C-26.20001277 298.81477712 -29.2799993 298.80806831 -32.36010742 298.79418945 C-53.9895616 298.69802683 -75.42521629 299.43660988 -97 301 C-97 294.4 -97 287.8 -97 281 C-95.39125 280.896875 -93.7825 280.79375 -92.125 280.6875 C-85.47254722 280.06946568 -78.81466999 279.1968156 -73.4375 275 C-70.37242323 270.73554536 -70.44195501 266.04495215 -71 261 C-72.09425986 257.008584 -73.58396652 253.21288387 -75.125 249.375 C-75.73698242 247.7986377 -75.73698242 247.7986377 -76.36132812 246.19042969 C-77.55778921 243.12014098 -78.77461122 240.05884202 -80 237 C-80.32967773 236.17338867 -80.65935547 235.34677734 -80.99902344 234.49511719 C-82.28781806 231.26683358 -83.58494451 228.04330169 -84.90625 224.828125 C-85.79271113 222.53598978 -86.43641407 220.38057677 -87 218 C-100.45599102 217.79146592 -113.91159772 217.63155265 -127.3688755 217.53369045 C-133.61775408 217.48672055 -139.86552723 217.42301496 -146.11376953 217.32104492 C-152.14389271 217.22325048 -158.17295287 217.16944088 -164.20380783 217.14610481 C-166.50445674 217.1294755 -168.80504744 217.09700062 -171.10524368 217.04842949 C-174.32876461 216.98306892 -177.54789567 216.97409791 -180.77197266 216.97827148 C-181.72287781 216.945914 -182.67378296 216.91355652 -183.65350342 216.88021851 C-187.61844314 216.93575234 -190.0168311 217.01125022 -192.89074326 219.90147591 C-196.46754742 225.1144031 -198.75784343 230.79956274 -200.8125 236.75 C-201.11091797 237.57371094 -201.40933594 238.39742187 -201.71679688 239.24609375 C-205.36626865 249.47779567 -207.60006308 261.41457414 -202.9375 271.6875 C-200.41489739 275.88951484 -197.76828789 278.61461906 -193 280 C-188.33289057 280.88020046 -183.7265534 281.45982247 -179 282 C-179.99 291.405 -179.99 291.405 -181 301 C-191.96169728 301.26520235 -202.42616523 300.85987482 -213.3125 299.5625 C-228.20319399 297.79304288 -243.02024381 297.28661056 -258 297 C-264.14025185 280.70603561 -264.14025185 280.70603561 -265 274 C-264.443125 273.90203125 -263.88625 273.8040625 -263.3125 273.703125 C-253.90580437 271.85992113 -245.8574341 268.26087204 -240.1875 260.25 C-235.87780962 253.46985579 -232.4491068 246.2416543 -229 239 C-228.5157959 237.98373535 -228.0315918 236.9674707 -227.53271484 235.92041016 C-220.40758845 220.89898273 -213.70431196 205.76287193 -207.39550781 190.37939453 C-204.61754752 183.65222058 -201.77807595 176.95092566 -198.9375 170.25 C-198.63535583 169.53691681 -198.33321167 168.82383362 -198.02191162 168.08914185 C-194.15354652 158.96803298 -190.21343959 149.88717125 -186.10327148 140.87182617 C-183.64457497 135.47152544 -181.30528704 130.02978686 -179 124.5625 C-173.95491213 112.63105984 -168.47805436 100.89477316 -163.02734375 89.14477539 C-159.1754289 80.82841326 -155.46746604 72.48586758 -152 64 C-150.85056588 61.28403627 -149.67941341 58.57805754 -148.5 55.875 C-148.09587891 54.93720703 -148.09587891 54.93720703 -147.68359375 53.98046875 C-146.08270383 50.30959093 -144.36194118 46.73606987 -142.52734375 43.17578125 C-139.49831448 37.179563 -137.30845706 30.93592002 -135.12695312 24.59179688 C-133.05059689 18.86608727 -130.74958339 13.9815525 -126 10 C-123.4453125 9.09765625 -123.4453125 9.09765625 -121.125 9.0625 C-120.34382812 9.03285156 -119.56265625 9.00320313 -118.7578125 8.97265625 C-118.17773438 8.98167969 -117.59765625 8.99070312 -117 9 C-112.31438675 18.0900897 -108.87468197 27.82784009 -105.25 37.375 C-98.65489144 54.61749982 -91.58928182 71.63933461 -84.36743164 88.62719727 C-78.95460348 101.40102323 -73.76717668 114.26559106 -68.56689453 127.12695312 C-64.85336036 136.30932352 -61.1167885 145.48229548 -57.36816406 154.65039062 C-56.44892848 156.9009103 -55.53163963 159.15222601 -54.61621094 161.40429688 C-47.60956665 178.63119575 -40.23298668 195.66092299 -32.62646484 212.62983704 C-28.33505871 222.20569015 -24.13447605 231.8158406 -20.12890625 241.515625 C-15.36204673 252.97970077 -9.73618779 264.01012547 1 271 C5.24995624 272.72423783 9.56385569 273.86210425 14 275 C15.65105189 275.56839491 17.29769273 276.14993562 18.9375 276.75 C23.87434777 278.3661717 23.87434777 278.3661717 29 278 C33.45080573 273.88124211 36.59479456 268.77111312 39.375 263.4375 C39.94190552 262.355896 39.94190552 262.355896 40.52026367 261.25244141 C63.13330943 216.62974156 66.27479031 162.96580314 51.33911133 115.58911133 C45.52311885 98.0488793 37.7212688 82.04621359 27 67 C26.40566162 66.15332764 26.40566162 66.15332764 25.79931641 65.28955078 C-4.02028126 23.2142876 -49.63486099 -3.35546089 -100 -12 C-105.40699527 -12.77080422 -110.71574981 -13.19040189 -116.1796875 -13.2734375 C-116.94172485 -13.28592026 -117.70376221 -13.29840302 -118.4888916 -13.31126404 C-136.93677235 -13.55462095 -154.05171036 -12.74023245 -172 -8 Z " fill="#0C0E10" transform="translate(638,338)"/>
<path d="M0 0 C3 1 3 1 4.17578125 3.17944336 C4.55089844 4.13987549 4.92601562 5.10030762 5.3125 6.08984375 C5.74240234 7.17080322 6.17230469 8.2517627 6.61523438 9.36547852 C7.07220703 10.54424561 7.52917969 11.7230127 8 12.9375 C8.73643103 14.79172813 9.47289588 16.64594409 10.21179199 18.49919128 C10.71991995 19.77411024 11.22682121 21.04951873 11.73254395 22.32539368 C14.22756995 28.61117391 16.84984936 34.84063544 19.5 41.0625 C19.94802979 42.11606689 20.39605957 43.16963379 20.85766602 44.25512695 C21.76949075 46.39924424 22.681683 48.54320526 23.59423828 50.68701172 C25.06969463 54.16425082 26.53410851 57.64598318 27.99609375 61.12890625 C28.48851562 62.29993896 28.9809375 63.47097168 29.48828125 64.67749023 C30.42643975 66.90925172 31.36275903 69.14178762 32.296875 71.37524414 C34.1791214 75.8445131 36.08299433 80.24858307 38.31640625 84.5546875 C40 88 40 88 40 91 C14.26 91 -11.48 91 -38 91 C-35.75181422 79.75907112 -35.75181422 79.75907112 -34 75.4375 C-33.56171875 74.34308594 -33.1234375 73.24867188 -32.671875 72.12109375 C-32.28612305 71.17339111 -32.28612305 71.17339111 -31.89257812 70.20654297 C-30.83525748 67.5927399 -29.80040907 64.97046245 -28.765625 62.34765625 C-24.68731275 52.03766998 -20.53766462 41.76109565 -16.1875 31.5625 C-15.83913086 30.74201172 -15.49076172 29.92152344 -15.13183594 29.07617188 C-11.62203677 20.92114849 -7.71667597 13.01243399 -3.1875 5.375 C-2.28064453 3.83972656 -2.28064453 3.83972656 -1.35546875 2.2734375 C-0.68451172 1.14808594 -0.68451172 1.14808594 0 0 Z " fill="#E9EAE6" transform="translate(498,437)"/>
<path d="M0 0 C7.22249465 3.67460254 11.79590044 8.10804554 14.5625 15.8125 C16.03099086 23.8063901 14.31025689 30.14682643 10.40234375 37.171875 C6.86376815 42.25059497 2.854252 44.87882326 -2.8125 47.1875 C-10.19852272 48.46095219 -16.84520991 48.84112172 -23.4375 44.8125 C-30.30727925 38.53009964 -34.30095731 32.38802698 -35 23.0625 C-34.74235496 15.80363097 -31.50686469 8.8587433 -26.36328125 3.75390625 C-18.78965412 -2.08380635 -9.12160252 -3.12892179 0 0 Z " fill="#07090B" transform="translate(710.4375,312.1875)"/>
<path d="M0 0 C0.02479204 5.44433259 0.04290359 10.88863203 0.05493164 16.33300781 C0.05994811 18.18359958 0.06676282 20.0341874 0.07543945 21.88476562 C0.0876229 24.55079117 0.09325528 27.21676412 0.09765625 29.8828125 C0.10281754 30.70492218 0.10797882 31.52703186 0.11329651 32.37405396 C0.11371514 36.69923396 -0.13423594 40.74008134 -1 45 C-1.33 45 -1.66 45 -2 45 C-2.33 30.48 -2.66 15.96 -3 1 C-1 0 -1 0 0 0 Z " fill="#020104" transform="translate(700,487)"/>
<path d="M0 0 C0.99 0.495 0.99 0.495 2 1 C2.9857554 5.90933409 3.11771657 10.68857497 3.09765625 15.68359375 C3.09553383 16.73414696 3.09553383 16.73414696 3.09336853 17.80592346 C3.08782477 20.01649466 3.07528326 22.22696004 3.0625 24.4375 C3.05747771 25.94726415 3.05291609 27.45702991 3.04882812 28.96679688 C3.03787387 32.64456493 3.0206489 36.32227212 3 40 C2.67 40 2.34 40 2 40 C1.67 35.71 1.34 31.42 1 27 C0.67 27 0.34 27 0 27 C0 18.09 0 9.18 0 0 Z " fill="#111416" transform="translate(724,490)"/>
<path d="M0 0 C1.89492188 0.01353516 1.89492188 0.01353516 3.828125 0.02734375 C4.79234375 0.03894531 5.7565625 0.05054688 6.75 0.0625 C6.75 0.3925 6.75 0.7225 6.75 1.0625 C13.35 1.3925 19.95 1.7225 26.75 2.0625 C26.75 2.3925 26.75 2.7225 26.75 3.0625 C14.21 3.0625 1.67 3.0625 -11.25 3.0625 C-11.25 2.4025 -11.25 1.7425 -11.25 1.0625 C-7.49600202 -0.1414337 -3.91782588 -0.03627617 0 0 Z " fill="#020109" transform="translate(457.25,551.9375)"/>
<path d="M0 0 C0.66 0.66 1.32 1.32 2 2 C0.6772113 4.00698975 -0.65783025 6.00591923 -2 8 C-2.391875 8.721875 -2.78375 9.44375 -3.1875 10.1875 C-6.14520062 13.14520062 -10.03752948 13.90346728 -14 15 C-13.67 14.34 -13.34 13.68 -13 13 C-12.34 13 -11.68 13 -11 13 C-10.67 12.01 -10.34 11.02 -10 10 C-9.071875 9.401875 -8.14375 8.80375 -7.1875 8.1875 C-3.5671566 5.70295061 -2.19800892 3.7197074 0 0 Z " fill="#D5D9D4" transform="translate(399,591)"/>
<path d="M0 0 C0.33 0 0.66 0 1 0 C1 7.26 1 14.52 1 22 C0.01 21.34 -0.98 20.68 -2 20 C-2.27741626 17.28549686 -2.3724247 14.83359648 -2.3125 12.125 C-2.31572266 11.40441406 -2.31894531 10.68382812 -2.32226562 9.94140625 C-2.28391251 6.15490781 -2.10900645 3.20972296 0 0 Z " fill="#242529" transform="translate(325,504)"/>
<path d="M0 0 C2.49310643 3.73965964 2.0603261 5.29070641 1.625 9.6875 C1.51414062 10.86699219 1.40328125 12.04648437 1.2890625 13.26171875 C1.19367188 14.16535156 1.09828125 15.06898438 1 16 C0.67 16 0.34 16 0 16 C-0.33 17.98 -0.66 19.96 -1 22 C-3 20 -3 20 -3.046875 17.96875 C-2.31811745 11.90855562 -1.30680402 5.96308629 0 0 Z " fill="#16171B" transform="translate(302,464)"/>
<path d="M0 0 C2.24538034 3.84344382 3.1026736 7.9638019 4.125 12.25 C4.30675781 12.99507812 4.48851562 13.74015625 4.67578125 14.5078125 C5.12147499 16.3375026 5.56131959 18.16861575 6 20 C5.01 19.67 4.02 19.34 3 19 C1.796875 16.015625 1.796875 16.015625 0.75 12.25 C0.39421875 11.01765625 0.0384375 9.7853125 -0.328125 8.515625 C-0.96734725 5.1708574 -0.95888339 3.22086472 0 0 Z " fill="#1D1E1F" transform="translate(329,556)"/>
<path d="M0 0 C0.66 0.33 1.32 0.66 2 1 C1.43179252 6.45479185 0.05362055 10.91059256 -2 16 C-3.1171875 14.390625 -3.1171875 14.390625 -4 12 C-3.3203125 8.984375 -3.3203125 8.984375 -2.125 5.75 C-1.73570312 4.67234375 -1.34640625 3.5946875 -0.9453125 2.484375 C-0.63335937 1.66453125 -0.32140625 0.8446875 0 0 Z " fill="#EBEAEA" transform="translate(498,365)"/>
<path d="M0 0 C6.65050424 -0.24991456 12.56986533 0.26044666 19 2 C18.67 2.66 18.34 3.32 18 4 C11.7945858 3.51679152 6.00054754 2.66681876 0 1 C0 0.67 0 0.34 0 0 Z " fill="#CCCECD" transform="translate(470,698)"/>
<path d="M0 0 C0.33 0.99 0.66 1.98 1 3 C9.25 3.33 17.5 3.66 26 4 C26 4.33 26 4.66 26 5 C16.76 5 7.52 5 -2 5 C-1 1 -1 1 0 0 Z " fill="#CFD2D0" transform="translate(462,523)"/>
<path d="M0 0 C2.29644356 0.75848593 4.58640491 1.53097389 6.875 2.3125 C7.52597656 2.52583984 8.17695313 2.73917969 8.84765625 2.95898438 C12.46488484 4.20823342 13.81421256 4.72131884 16 8 C9.89262558 6.23536928 3.92566493 4.30442525 -2 2 C-1.34 1.34 -0.68 0.68 0 0 Z " fill="#1F201C" transform="translate(436,714)"/>
<path d="M0 0 C0.33 0 0.66 0 1 0 C0.88590318 2.10478604 0.75834639 4.20884577 0.625 6.3125 C0.52058594 8.07013672 0.52058594 8.07013672 0.4140625 9.86328125 C0 13 0 13 -2 16 C-2.05402274 13.89611431 -2.09280256 11.79183286 -2.125 9.6875 C-2.14820313 8.51574219 -2.17140625 7.34398437 -2.1953125 6.13671875 C-2 3 -2 3 0 0 Z " fill="#050708" transform="translate(723,545)"/>
<path d="M0 0 C0.99 0.33 1.98 0.66 3 1 C2.65514457 3.8842454 2.21744593 4.8207818 -0.06640625 6.703125 C-0.89011719 7.21359375 -1.71382812 7.7240625 -2.5625 8.25 C-3.38878906 8.77078125 -4.21507812 9.2915625 -5.06640625 9.828125 C-6.02353516 10.40820312 -6.02353516 10.40820312 -7 11 C-7.33 10.34 -7.66 9.68 -8 9 C-6.8553125 8.1646875 -6.8553125 8.1646875 -5.6875 7.3125 C-3.03859112 5.03320631 -1.61711178 3.06400128 0 0 Z " fill="#1A1A19" transform="translate(673,607)"/>
<path d="M0 0 C1 3 1 3 0.29296875 4.90234375 C-0.25423828 5.90974609 -0.25423828 5.90974609 -0.8125 6.9375 C-1.16957031 7.60652344 -1.52664063 8.27554687 -1.89453125 8.96484375 C-2.25933594 9.63644531 -2.62414062 10.30804688 -3 11 C-3.67127626 12.33101856 -4.33931905 13.66369057 -5 15 C-5.66 15 -6.32 15 -7 15 C-6.42176904 10.93774452 -5.10882263 8.15237654 -2.9375 4.6875 C-2.38964844 3.80449219 -1.84179688 2.92148437 -1.27734375 2.01171875 C-0.64505859 1.01591797 -0.64505859 1.01591797 0 0 Z " fill="#F1F0EE" transform="translate(507,349)"/>
<path d="M0 0 C1.65 0 3.3 0 5 0 C5.33 0.99 5.66 1.98 6 3 C6.78375 2.79375 7.5675 2.5875 8.375 2.375 C9.674375 2.189375 9.674375 2.189375 11 2 C11.66 2.66 12.32 3.32 13 4 C12.67 4.66 12.34 5.32 12 6 C10.1838018 5.57811541 8.37205927 5.13700835 6.5625 4.6875 C5.55316406 4.44386719 4.54382813 4.20023437 3.50390625 3.94921875 C2.26447266 3.47935547 2.26447266 3.47935547 1 3 C0.67 2.01 0.34 1.02 0 0 Z " fill="#161618" transform="translate(561,329)"/>
<path d="M0 0 C-1 2 -1 2 -3.1796875 2.88671875 C-4.06914062 3.15097656 -4.95859375 3.41523438 -5.875 3.6875 C-6.75929688 3.95949219 -7.64359375 4.23148437 -8.5546875 4.51171875 C-11 5 -11 5 -14 4 C-9.10274567 0.87119862 -5.78901746 -0.16080604 0 0 Z " fill="#E6EAE0" transform="translate(453,304)"/>
<path d="M0 0 C0.99 0.33 1.98 0.66 3 1 C2.67 2.65 2.34 4.3 2 6 C0.02 6.33 -1.96 6.66 -4 7 C-2.79618552 4.50638429 -1.54571278 2.31856917 0 0 Z " fill="#E5E6E5" transform="translate(667,661)"/>
<path d="M0 0 C0.33 0 0.66 0 1 0 C1.3283194 5.5814298 -0.37969313 10.13371581 -3 15 C-3.66 14.67 -4.32 14.34 -5 14 C-3.45730076 9.27934033 -1.92205381 4.58335908 0 0 Z " fill="#181817" transform="translate(450,480)"/>
<path d="M0 0 C4.02992782 0.55312735 8.02022924 1.1558062 12 2 C12 2.99 12 3.98 12 5 C6.06 3.515 6.06 3.515 0 2 C0 1.34 0 0.68 0 0 Z " fill="#D1D1CB" transform="translate(569,303)"/>
<path d="M0 0 C2.1640625 0.2421875 2.1640625 0.2421875 4.625 0.875 C5.44226563 1.07867188 6.25953125 1.28234375 7.1015625 1.4921875 C8.04128906 1.74355469 8.04128906 1.74355469 9 2 C9 2.66 9 3.32 9 4 C9.99 4.33 10.98 4.66 12 5 C7.03083364 4.48594831 2.70973649 3.76615118 -2 2 C-1.34 1.34 -0.68 0.68 0 0 Z " fill="#CDCFCB" transform="translate(454,692)"/>
<path d="M0 0 C0.66 0 1.32 0 2 0 C2.67305018 1.60149886 3.33822227 3.20631029 4 4.8125 C4.37125 5.70582031 4.7425 6.59914063 5.125 7.51953125 C6 10 6 10 6 13 C5.34 13 4.68 13 4 13 C3.32694982 11.39850114 2.66177773 9.79368971 2 8.1875 C1.62875 7.29417969 1.2575 6.40085937 0.875 5.48046875 C0 3 0 3 0 0 Z " fill="#171718" transform="translate(611,565)"/>
<path d="M0 0 C4.71403788 0.47939368 8.66579301 0.96834048 13 3 C12.67 3.66 12.34 4.32 12 5 C11.01 5 10.02 5 9 5 C9 4.34 9 3.68 9 3 C7.88625 2.87625 6.7725 2.7525 5.625 2.625 C2 2 2 2 0 0 Z " fill="#E8E9E1" transform="translate(439,719)"/>
<path d="M0 0 C0 0.66 0 1.32 0 2 C-1.65 2.33 -3.3 2.66 -5 3 C-5.33 4.65 -5.66 6.3 -6 8 C-6.66 8 -7.32 8 -8 8 C-8 6.02 -8 4.04 -8 2 C-2.25 0 -2.25 0 0 0 Z " fill="#1E201E" transform="translate(381,610)"/>
<path d="M0 0 C0.66 0 1.32 0 2 0 C2.99 3.3 3.98 6.6 5 10 C4.34 10.66 3.68 11.32 3 12 C3 10.68 3 9.36 3 8 C2.34 8 1.68 8 1 8 C0.67 5.36 0.34 2.72 0 0 Z " fill="#DFDBDE" transform="translate(551,562)"/>
<path d="M0 0 C2.31 0 4.62 0 7 0 C7 0.66 7 1.32 7 2 C9.475 2.99 9.475 2.99 12 4 C11.01 4.66 10.02 5.32 9 6 C6.03 4.35 3.06 2.7 0 1 C0 0.67 0 0.34 0 0 Z " fill="#191819" transform="translate(600,347)"/>
<path d="M0 0 C0.33 0.66 0.66 1.32 1 2 C-1.70879335 3.35439668 -4.00933268 3.06501451 -7 3 C-7.33 2.01 -7.66 1.02 -8 0 C-4.97878489 -0.97110486 -2.99536737 -1.13617383 0 0 Z " fill="#1A191C" transform="translate(562,698)"/>
<path d="M0 0 C0.99 0 1.98 0 3 0 C2.5206753 4.31392226 1.2542015 6.16569547 -2 9 C-2.20140476 5.37471432 -1.85776765 3.13498292 0 0 Z " fill="#E6E5E0" transform="translate(324,401)"/>
<path d="M0 0 C-1 2 -1 2 -3.06640625 2.8515625 C-4.30197266 3.23441406 -4.30197266 3.23441406 -5.5625 3.625 C-6.38878906 3.88539063 -7.21507812 4.14578125 -8.06640625 4.4140625 C-8.70449219 4.60742188 -9.34257812 4.80078125 -10 5 C-9.67 4.34 -9.34 3.68 -9 3 C-8.34 3 -7.68 3 -7 3 C-6.67 2.01 -6.34 1.02 -6 0 C-3.50907189 -1.24546405 -2.58919267 -0.7767578 0 0 Z " fill="#CAD1CC" transform="translate(395,601)"/>
<path d="M0 0 C2.31 0 4.62 0 7 0 C7.33 0.99 7.66 1.98 8 3 C5.03 2.67 2.06 2.34 -1 2 C-0.67 1.34 -0.34 0.68 0 0 Z " fill="#181717" transform="translate(528,323)"/>
<path d="M0 0 C0.66 0 1.32 0 2 0 C2 0.66 2 1.32 2 2 C1.34 2 0.68 2 0 2 C-0.33 4.64 -0.66 7.28 -1 10 C-1.33 9.34 -1.66 8.68 -2 8 C-2.99 7.67 -3.98 7.34 -5 7 C-4.21654285 5.82780457 -3.42297164 4.66236332 -2.625 3.5 C-2.18414063 2.8503125 -1.74328125 2.200625 -1.2890625 1.53125 C-0.65097656 0.77328125 -0.65097656 0.77328125 0 0 Z " fill="#E8EDF2" transform="translate(694,626)"/>
<path d="M0 0 C2.51699845 2.51699845 3.10964078 4.57554146 4 8 C3.625 10.375 3.625 10.375 3 12 C2.67 10.02 2.34 8.04 2 6 C1.34 6 0.68 6 0 6 C-0.38218767 4.34385343 -0.71395102 2.67542976 -1 1 C-0.67 0.67 -0.34 0.34 0 0 Z " fill="#A2A4A6" transform="translate(374,622)"/>
<path d="M0 0 C2.95183101 2.95183101 3.08663988 5.95511947 4 10 C2.0625 8.875 2.0625 8.875 0 7 C-0.8125 3.875 -0.8125 3.875 -1 1 C-0.67 0.67 -0.34 0.34 0 0 Z " fill="#1D1D1C" transform="translate(335,577)"/>
<path d="M0 0 C3 1 3 1 4.6875 3.9375 C6 7 6 7 6 9 C3 8 3 8 1.3125 5.0625 C0 2 0 2 0 0 Z " fill="#171715" transform="translate(544,408)"/>
<path d="M0 0 C0.66 0.33 1.32 0.66 2 1 C0.35 2.98 -1.3 4.96 -3 7 C-3.66 6.67 -4.32 6.34 -5 6 C-3.86695008 2.60085025 -2.87481525 1.94745549 0 0 Z " fill="#141513" transform="translate(627,663)"/>
<path d="M0 0 C0.66 0 1.32 0 2 0 C2.99 2.97 3.98 5.94 5 9 C4.01 8.67 3.02 8.34 2 8 C0.5522078 5.10441559 0 3.25811062 0 0 Z " fill="#171719" transform="translate(583,501)"/>
<path d="M0 0 C1.99097846 2.98646769 2.94124926 5.59687262 4 9 C2.0625 8.3125 2.0625 8.3125 0 7 C-0.93580311 4.12060581 -1.37245106 2.74490212 0 0 Z " fill="#141516" transform="translate(563,449)"/>
<path d="M0 0 C0 0.66 0 1.32 0 2 C-1.75 3.2890625 -1.75 3.2890625 -4 4.625 C-4.7425 5.07101562 -5.485 5.51703125 -6.25 5.9765625 C-6.8275 6.31429688 -7.405 6.65203125 -8 7 C-8 4 -8 4 -6.6875 2.375 C-4.55183556 0.63482898 -2.75958004 0 0 0 Z " fill="#181A17" transform="translate(410,354)"/>
<path d="M0 0 C1.32 0 2.64 0 4 0 C4 0.99 4 1.98 4 3 C3.1028125 3.1546875 3.1028125 3.1546875 2.1875 3.3125 C-0.28243264 4.08876455 -1.32251235 5.07088921 -3 7 C-1.125 2.25 -1.125 2.25 0 0 Z " fill="#DDE0E4" transform="translate(688,634)"/>
<path d="M0 0 C0.33 0 0.66 0 1 0 C0.67 2.97 0.34 5.94 0 9 C-0.99 9.33 -1.98 9.66 -3 10 C-2.39009109 6.44219804 -1.4216319 3.3171411 0 0 Z " fill="#DBE6E6" transform="translate(474,487)"/>
<path d="M0 0 C0.99 0.33 1.98 0.66 3 1 C2.01 2.485 2.01 2.485 1 4 C1.33 4.66 1.66 5.32 2 6 C0.35 6.33 -1.3 6.66 -3 7 C-2.38722388 4.03824877 -1.74627478 2.61941217 0 0 Z " fill="#E6E8E9" transform="translate(362,399)"/>
<path d="M0 0 C3.7952131 1.49097658 5.61042731 3.75700849 8 7 C7.67 7.66 7.34 8.32 7 9 C5.83037314 7.69013727 4.66437056 6.3770374 3.5 5.0625 C2.8503125 4.33160156 2.200625 3.60070312 1.53125 2.84765625 C0 1 0 1 0 0 Z " fill="#E1E1E1" transform="translate(665,361)"/>
<path d="M0 0 C0.66 0 1.32 0 2 0 C0.54744301 3.82946843 -1.42895561 5.12050295 -5 7 C-4.67 5.68 -4.34 4.36 -4 3 C-2.68 2.67 -1.36 2.34 0 2 C0 1.34 0 0.68 0 0 Z " fill="#E9EBE6" transform="translate(383,337)"/>
<path d="M0 0 C-3.63 0.66 -7.26 1.32 -11 2 C-11 1.34 -11 0.68 -11 0 C-4.5 -2.25 -4.5 -2.25 0 0 Z " fill="#1E1E20" transform="translate(569,723)"/>
<path d="M0 0 C0.99 0 1.98 0 3 0 C2.34 1.98 1.68 3.96 1 6 C0.01 6 -0.98 6 -2 6 C-1.34 4.02 -0.68 2.04 0 0 Z " fill="#C5C2BE" transform="translate(646,638)"/>
<path d="M0 0 C4 4.75 4 4.75 4 7 C4.66 7.33 5.32 7.66 6 8 C5.01 8 4.02 8 3 8 C2.67 7.01 2.34 6.02 2 5 C1.34 5 0.68 5 0 5 C-0.33 4.01 -0.66 3.02 -1 2 C-0.67 1.34 -0.34 0.68 0 0 Z " fill="#1C1D1F" transform="translate(434,607)"/>
<path d="M0 0 C1.99097846 2.98646769 2.94124926 5.59687262 4 9 C3.01 8.67 2.02 8.34 1 8 C-0.25 5.0625 -0.25 5.0625 -1 2 C-0.67 1.34 -0.34 0.68 0 0 Z " fill="#1F1F20" transform="translate(573,474)"/>
<path d="M0 0 C0.66 0.33 1.32 0.66 2 1 C0.68 3.31 -0.64 5.62 -2 8 C-2.66 8 -3.32 8 -4 8 C-3.67 6.35 -3.34 4.7 -3 3 C-2.01 2.67 -1.02 2.34 0 2 C0 1.34 0 0.68 0 0 Z " fill="#E5E7E3" transform="translate(332,391)"/>
<path d="M0 0 C0 0.66 0 1.32 0 2 C-2.31 3.32 -4.62 4.64 -7 6 C-7.33 5.01 -7.66 4.02 -8 3 C-2.25 0 -2.25 0 0 0 Z " fill="#E6E9DF" transform="translate(394,331)"/>
<path d="M0 0 C0.99 0 1.98 0 3 0 C2.25 2.4375 2.25 2.4375 1 5 C-1.125 5.8125 -1.125 5.8125 -3 6 C-3 5.34 -3 4.68 -3 4 C-2.34 4 -1.68 4 -1 4 C-0.67 2.68 -0.34 1.36 0 0 Z " fill="#1E2426" transform="translate(690,627)"/>
<path d="M0 0 C0.66 1.32 1.32 2.64 2 4 C0.625 6 0.625 6 -1 8 C-1.66 8 -2.32 8 -3 8 C-1.125 2.25 -1.125 2.25 0 0 Z " fill="#141415" transform="translate(416,560)"/>
</svg>
